<svg width="162" height="48" viewBox="0 0 162 48" fill="none" xmlns="http://www.w3.org/2000/svg">
<rect x="0.5" y="0.5" width="161" height="47" rx="4.5" stroke="white"/>
<path d="M81.7633 26.1013C78.9409 26.1013 76.6405 28.2481 76.6405 31.2049C76.6405 34.1437 78.9409 36.3085 81.7633 36.3085C84.5869 36.3085 86.8873 34.1437 86.8873 31.2049C86.8861 28.2481 84.5857 26.1013 81.7633 26.1013ZM81.7633 34.2997C80.2165 34.2997 78.8833 33.0241 78.8833 31.2061C78.8833 29.3689 80.2177 28.1125 81.7633 28.1125C83.3101 28.1125 84.6433 29.3689 84.6433 31.2061C84.6433 33.0229 83.3101 34.2997 81.7633 34.2997ZM70.5865 26.1013C67.7641 26.1013 65.4637 28.2481 65.4637 31.2049C65.4637 34.1437 67.7641 36.3085 70.5865 36.3085C73.4101 36.3085 75.7105 34.1437 75.7105 31.2049C75.7105 28.2481 73.4101 26.1013 70.5865 26.1013ZM70.5865 34.2997C69.0397 34.2997 67.7065 33.0241 67.7065 31.2061C67.7065 29.3689 69.0409 28.1125 70.5865 28.1125C72.1333 28.1125 73.4665 29.3689 73.4665 31.2061C73.4677 33.0229 72.1333 34.2997 70.5865 34.2997ZM57.2929 27.6685V29.8333H62.4745C62.3197 31.0513 61.9141 31.9405 61.2949 32.5585C60.5413 33.3121 59.3617 34.1437 57.2929 34.1437C54.1033 34.1437 51.6097 31.5721 51.6097 28.3825C51.6097 25.1929 54.1033 22.6213 57.2929 22.6213C59.0137 22.6213 60.2701 23.2981 61.1977 24.1681L62.7253 22.6405C61.4293 21.4033 59.7097 20.4565 57.2929 20.4565C52.9237 20.4565 49.2505 24.0133 49.2505 28.3825C49.2505 32.7517 52.9237 36.3085 57.2929 36.3085C59.6509 36.3085 61.4305 35.5345 62.8213 34.0849C64.2517 32.6545 64.6969 30.6433 64.6969 29.0197C64.6969 28.5181 64.6585 28.0537 64.5805 27.6673H57.2929V27.6685ZM111.662 29.3497C111.238 28.2097 109.942 26.1013 107.293 26.1013C104.664 26.1013 102.479 28.1701 102.479 31.2049C102.479 34.0657 104.645 36.3085 107.544 36.3085C109.883 36.3085 111.236 34.8781 111.798 34.0465L110.058 32.8861C109.478 33.7369 108.685 34.2973 107.544 34.2973C106.404 34.2973 105.592 33.7753 105.07 32.7505L111.894 29.9281L111.662 29.3497ZM104.702 31.0513C104.645 29.0785 106.23 28.0741 107.371 28.0741C108.26 28.0741 109.014 28.5193 109.266 29.1565L104.702 31.0513ZM99.1549 36.0001H101.396V20.9989H99.1549V36.0001ZM95.4805 27.2425H95.4037C94.9009 26.6425 93.9337 26.1013 92.7169 26.1013C90.1645 26.1013 87.8257 28.3441 87.8257 31.2253C87.8257 34.0861 90.1645 36.3097 92.7169 36.3097C93.9349 36.3097 94.9009 35.7685 95.4037 35.1505H95.4805V35.8849C95.4805 37.8373 94.4365 38.8813 92.7553 38.8813C91.3825 38.8813 90.5317 37.8961 90.1837 37.0645L88.2313 37.8769C88.7917 39.2293 90.2797 40.8925 92.7553 40.8925C95.3845 40.8925 97.6081 39.3457 97.6081 35.5753V26.4121H95.4817V27.2425H95.4805ZM92.9101 34.2997C91.3633 34.2997 90.0685 33.0037 90.0685 31.2253C90.0685 29.4265 91.3633 28.1125 92.9101 28.1125C94.4365 28.1125 95.6353 29.4265 95.6353 31.2253C95.6353 33.0037 94.4365 34.2997 92.9101 34.2997ZM122.167 20.9989H116.802V36.0001H119.04V30.3169H122.166C124.648 30.3169 127.088 28.5205 127.088 25.6585C127.088 22.7965 124.649 20.9989 122.167 20.9989ZM122.225 28.2289H119.04V23.0869H122.225C123.899 23.0869 124.849 24.4729 124.849 25.6585C124.849 26.8201 123.899 28.2289 122.225 28.2289ZM136.063 26.0749C134.442 26.0749 132.763 26.7889 132.068 28.3717L134.056 29.2009C134.48 28.3717 135.272 28.1005 136.102 28.1005C137.26 28.1005 138.437 28.7953 138.456 30.0301V30.1849C138.05 29.9533 137.182 29.6065 136.121 29.6065C133.979 29.6065 131.797 30.7837 131.797 32.9833C131.797 34.9909 133.554 36.2833 135.522 36.2833C137.027 36.2833 137.857 35.6077 138.378 34.8157H138.455V35.9737H140.617V30.2221C140.618 27.5605 138.629 26.0749 136.063 26.0749ZM135.792 34.2961C135.06 34.2961 134.036 33.9289 134.036 33.0217C134.036 31.8637 135.311 31.4197 136.411 31.4197C137.394 31.4197 137.858 31.6321 138.456 31.9213C138.282 33.3121 137.086 34.2961 135.792 34.2961ZM148.492 26.4025L145.925 32.9065H145.848L143.184 26.4025H140.772L144.767 35.4925L142.489 40.5493H144.824L150.982 26.4025H148.492ZM128.324 36.0001H130.562V20.9989H128.324V36.0001Z" fill="white"/>
<path d="M56.9018 12.2915C56.9018 13.2971 56.6042 14.0975 56.0078 14.6951C55.331 15.4055 54.4478 15.7607 53.363 15.7607C52.3238 15.7607 51.4394 15.4007 50.7134 14.6807C49.9862 13.9595 49.6226 13.0667 49.6226 12.0011C49.6226 10.9343 49.9862 10.0415 50.7134 9.32152C51.4394 8.60032 52.3238 8.24032 53.363 8.24032C53.879 8.24032 54.3722 8.34112 54.8402 8.54152C55.3094 8.74312 55.685 9.01072 55.9658 9.34552L55.3334 9.97912C54.857 9.40912 54.2006 9.12472 53.3618 9.12472C52.6034 9.12472 51.9482 9.39112 51.395 9.92392C50.8418 10.4567 50.5658 11.1491 50.5658 11.9999C50.5658 12.8507 50.8418 13.5431 51.395 14.0759C51.9482 14.6087 52.6034 14.8751 53.3618 14.8751C54.1658 14.8751 54.8366 14.6075 55.373 14.0711C55.721 13.7219 55.9226 13.2359 55.9766 12.6131H53.3618V11.7479H56.8502C56.8862 11.9363 56.9018 12.1175 56.9018 12.2915Z" fill="white"/>
<path d="M62.4339 9.28439H59.1555V11.5668H62.1123V12.432H59.1555V14.7144H62.4339V15.6H58.2303V8.39999H62.4339V9.28439Z" fill="white"/>
<path d="M66.3349 15.6H65.4097V9.28439H63.3985V8.39999H68.3461V9.28439H66.3349V15.6Z" fill="white"/>
<path d="M71.9257 15.6V8.39999H72.8509V15.6H71.9257Z" fill="white"/>
<path d="M76.9539 15.6H76.0287V9.28439H74.0175V8.39999H78.9651V9.28439H76.9539V15.6Z" fill="white"/>
<path d="M88.3308 14.67C87.6228 15.3972 86.7432 15.7608 85.6908 15.7608C84.6384 15.7608 83.7588 15.3972 83.052 14.67C82.344 13.9428 81.9912 13.0524 81.9912 12C81.9912 10.9476 82.344 10.0572 83.052 9.32998C83.7588 8.60278 84.6384 8.23798 85.6908 8.23798C86.7372 8.23798 87.6156 8.60398 88.326 9.33478C89.0364 10.0656 89.3916 10.9536 89.3916 12C89.3916 13.0524 89.0376 13.9428 88.3308 14.67ZM83.7348 14.0664C84.2676 14.6064 84.9192 14.8752 85.6908 14.8752C86.4624 14.8752 87.1152 14.6052 87.6468 14.0664C88.1796 13.5264 88.4472 12.8376 88.4472 12C88.4472 11.1624 88.1796 10.4736 87.6468 9.93358C87.1152 9.39358 86.4624 9.12478 85.6908 9.12478C84.9192 9.12478 84.2676 9.39478 83.7348 9.93358C83.2032 10.4736 82.9356 11.1624 82.9356 12C82.9356 12.8376 83.2032 13.5264 83.7348 14.0664Z" fill="white"/>
<path d="M90.69 15.6V8.39999H91.8156L95.3148 14.0004H95.3544L95.3148 12.6132V8.39999H96.24V15.6H95.274L91.6128 9.72719H91.5732L91.6128 11.1144V15.6H90.69Z" fill="white"/>
<path d="M56.9018 12.2915C56.9018 13.2971 56.6042 14.0975 56.0078 14.6951C55.331 15.4055 54.4478 15.7607 53.363 15.7607C52.3238 15.7607 51.4394 15.4007 50.7134 14.6807C49.9862 13.9595 49.6226 13.0667 49.6226 12.0011C49.6226 10.9343 49.9862 10.0415 50.7134 9.32152C51.4394 8.60032 52.3238 8.24032 53.363 8.24032C53.879 8.24032 54.3722 8.34112 54.8402 8.54152C55.3094 8.74312 55.685 9.01072 55.9658 9.34552L55.3334 9.97912C54.857 9.40912 54.2006 9.12472 53.3618 9.12472C52.6034 9.12472 51.9482 9.39112 51.395 9.92392C50.8418 10.4567 50.5658 11.1491 50.5658 11.9999C50.5658 12.8507 50.8418 13.5431 51.395 14.0759C51.9482 14.6087 52.6034 14.8751 53.3618 14.8751C54.1658 14.8751 54.8366 14.6075 55.373 14.0711C55.721 13.7219 55.9226 13.2359 55.9766 12.6131H53.3618V11.7479H56.8502C56.8862 11.9363 56.9018 12.1175 56.9018 12.2915Z" stroke="white" stroke-width="0.2" stroke-miterlimit="10"/>
<path d="M62.4339 9.28439H59.1555V11.5668H62.1123V12.432H59.1555V14.7144H62.4339V15.6H58.2303V8.39999H62.4339V9.28439Z" stroke="white" stroke-width="0.2" stroke-miterlimit="10"/>
<path d="M66.3349 15.6H65.4097V9.28439H63.3985V8.39999H68.3461V9.28439H66.3349V15.6Z" stroke="white" stroke-width="0.2" stroke-miterlimit="10"/>
<path d="M71.9257 15.6V8.39999H72.8509V15.6H71.9257Z" stroke="white" stroke-width="0.2" stroke-miterlimit="10"/>
<path d="M76.9539 15.6H76.0287V9.28439H74.0175V8.39999H78.9651V9.28439H76.9539V15.6Z" stroke="white" stroke-width="0.2" stroke-miterlimit="10"/>
<path d="M88.3308 14.67C87.6228 15.3972 86.7432 15.7608 85.6908 15.7608C84.6384 15.7608 83.7588 15.3972 83.052 14.67C82.344 13.9428 81.9912 13.0524 81.9912 12C81.9912 10.9476 82.344 10.0572 83.052 9.32998C83.7588 8.60278 84.6384 8.23798 85.6908 8.23798C86.7372 8.23798 87.6156 8.60398 88.326 9.33478C89.0364 10.0656 89.3916 10.9536 89.3916 12C89.3916 13.0524 89.0376 13.9428 88.3308 14.67ZM83.7348 14.0664C84.2676 14.6064 84.9192 14.8752 85.6908 14.8752C86.4624 14.8752 87.1152 14.6052 87.6468 14.0664C88.1796 13.5264 88.4472 12.8376 88.4472 12C88.4472 11.1624 88.1796 10.4736 87.6468 9.93358C87.1152 9.39358 86.4624 9.12478 85.6908 9.12478C84.9192 9.12478 84.2676 9.39478 83.7348 9.93358C83.2032 10.4736 82.9356 11.1624 82.9356 12C82.9356 12.8376 83.2032 13.5264 83.7348 14.0664Z" stroke="white" stroke-width="0.2" stroke-miterlimit="10"/>
<path d="M90.69 15.6V8.39999H91.8156L95.3148 14.0004H95.3544L95.3148 12.6132V8.39999H96.24V15.6H95.274L91.6128 9.72719H91.5732L91.6128 11.1144V15.6H90.69Z" stroke="white" stroke-width="0.2" stroke-miterlimit="10"/>
<path fill-rule="evenodd" clip-rule="evenodd" d="M12.2329 9.46374C12.0626 9.80115 11.9675 10.2274 11.9675 10.7316V37.2708C11.9675 37.7761 12.0627 38.2023 12.2333 38.5395L26.7699 24.0008L12.2329 9.46374ZM12.9257 39.2613C13.4721 39.5432 14.2089 39.4893 15.0167 39.0312L32.0954 29.3262L27.4771 24.7079L12.9257 39.2613ZM32.998 28.8146L38.4179 25.7352C40.0943 24.7812 40.0943 23.2224 38.4179 22.2696L32.9956 19.1885L28.1841 24.0007L32.998 28.8146ZM32.0938 18.6761L15.0167 8.97241C14.2088 8.51333 13.4721 8.46006 12.9256 8.74221L27.477 23.2936L32.0938 18.6761Z" fill="white"/>
</svg>
