<svg width="144" height="48" viewBox="0 0 144 48" fill="none" xmlns="http://www.w3.org/2000/svg">
<rect x="0.5" y="0.5" width="143" height="47" rx="6.5" stroke="white"/>
<path d="M97.831 23.0411V25.7903H96.1078V27.5933H97.831V33.7192C97.831 35.811 98.7773 36.6478 101.158 36.6478C101.576 36.6478 101.975 36.598 102.323 36.5382V34.7552C102.025 34.7851 101.835 34.805 101.507 34.805C100.441 34.805 99.9726 34.3069 99.9726 33.1714V27.5933H102.323V25.7903H99.9726V23.0411H97.831Z" fill="white"/>
<path d="M108.388 36.7972C111.556 36.7972 113.498 34.6755 113.498 31.1593C113.498 27.663 111.546 25.5314 108.388 25.5314C105.22 25.5314 103.268 27.663 103.268 31.1593C103.268 34.6755 105.21 36.7972 108.388 36.7972ZM108.388 34.8946C106.525 34.8946 105.479 33.53 105.479 31.1593C105.479 28.8085 106.525 27.4339 108.388 27.4339C110.241 27.4339 111.297 28.8085 111.297 31.1593C111.297 33.52 110.241 34.8946 108.388 34.8946Z" fill="white"/>
<path d="M115.16 36.588H117.301V30.1831C117.301 28.6591 118.447 27.6331 120.071 27.6331C120.449 27.6331 121.087 27.7028 121.266 27.7626V25.6509C121.037 25.5911 120.628 25.5612 120.31 25.5612C118.895 25.5612 117.69 26.3382 117.381 27.404H117.222V25.7405H115.16V36.588Z" fill="white"/>
<path d="M126.583 27.3542C128.167 27.3542 129.203 28.4599 129.253 30.1632H123.774C123.894 28.4698 125 27.3542 126.583 27.3542ZM129.243 33.6595C128.845 34.5062 127.958 34.9743 126.663 34.9743C124.95 34.9743 123.844 33.769 123.774 31.8665V31.747H131.434V30.9999C131.434 27.5933 129.612 25.5314 126.593 25.5314C123.535 25.5314 121.593 27.7327 121.593 31.1991C121.593 34.6655 123.496 36.7972 126.603 36.7972C129.084 36.7972 130.817 35.6019 131.305 33.6595H129.243Z" fill="white"/>
<path d="M83.7867 32.5822C83.9519 35.2458 86.1716 36.9493 89.4754 36.9493C93.0062 36.9493 95.2156 35.1632 95.2156 32.3138C95.2156 30.0734 93.9561 28.8345 90.9001 28.1221L89.2585 27.7195C87.3176 27.2652 86.533 26.6561 86.533 25.5927C86.533 24.2506 87.7512 23.373 89.5786 23.373C91.3131 23.373 92.5107 24.2299 92.7275 25.603H94.9782C94.844 23.0942 92.6346 21.3288 89.6096 21.3288C86.3574 21.3288 84.1894 23.0942 84.1894 25.7476C84.1894 27.9363 85.4179 29.2371 88.1126 29.8669L90.0329 30.3315C92.0048 30.7961 92.872 31.4775 92.872 32.6132C92.872 33.9347 91.5092 34.8948 89.6509 34.8948C87.6583 34.8948 86.2748 33.9966 86.0787 32.5822H83.7867Z" fill="white"/>
<path d="M61.6019 25.5612C60.1277 25.5612 58.8527 26.2983 58.1953 27.5335H58.0359V25.7405H55.974V40.1939H58.1156V34.9444H58.2849C58.8527 36.0899 60.0779 36.7673 61.6218 36.7673C64.3611 36.7673 66.1043 34.6058 66.1043 31.1593C66.1043 27.7128 64.3611 25.5612 61.6019 25.5612ZM60.9943 34.8448C59.2013 34.8448 58.0757 33.4304 58.0757 31.1692C58.0757 28.8981 59.2013 27.4837 61.0043 27.4837C62.8171 27.4837 63.9029 28.8683 63.9029 31.1593C63.9029 33.4603 62.8171 34.8448 60.9943 34.8448Z" fill="white"/>
<path d="M73.5981 25.5612C72.1238 25.5612 70.8488 26.2983 70.1914 27.5335H70.0321V25.7405H67.9701V40.1939H70.1117V34.9444H70.2811C70.8488 36.0899 72.074 36.7673 73.618 36.7673C76.3572 36.7673 78.1004 34.6058 78.1004 31.1593C78.1004 27.7128 76.3572 25.5612 73.5981 25.5612ZM72.9904 34.8448C71.1975 34.8448 70.0719 33.4304 70.0719 31.1692C70.0719 28.8981 71.1975 27.4837 73.0004 27.4837C74.8133 27.4837 75.899 28.8683 75.899 31.1593C75.899 33.4603 74.8133 34.8448 72.9904 34.8448Z" fill="white"/>
<path d="M52.1316 36.588H54.5887L49.2098 21.6901H46.7217L41.3428 36.588H43.7173L45.0905 32.6338H50.7688L52.1316 36.588ZM47.847 24.3951H48.0225L50.1803 30.6929H45.6789L47.847 24.3951Z" fill="white"/>
<path d="M42.7812 10.4531V17.6399H45.3761C47.5177 17.6399 48.7578 16.3201 48.7578 14.0241C48.7578 11.763 47.5077 10.4531 45.3761 10.4531H42.7812ZM43.8969 11.4691H45.2516C46.7407 11.4691 47.6223 12.4154 47.6223 14.0391C47.6223 15.6876 46.7557 16.6239 45.2516 16.6239H43.8969V11.4691Z" fill="white"/>
<path d="M52.5559 17.7445C54.1397 17.7445 55.1109 16.6837 55.1109 14.9256C55.1109 13.1774 54.1347 12.1116 52.5559 12.1116C50.9721 12.1116 49.996 13.1774 49.996 14.9256C49.996 16.6837 50.9671 17.7445 52.5559 17.7445ZM52.5559 16.7933C51.6246 16.7933 51.1016 16.1109 51.1016 14.9256C51.1016 13.7502 51.6246 13.0629 52.5559 13.0629C53.4823 13.0629 54.0102 13.7502 54.0102 14.9256C54.0102 16.106 53.4823 16.7933 52.5559 16.7933Z" fill="white"/>
<path d="M63.3815 12.2162H62.3107L61.3445 16.355H61.2598L60.1442 12.2162H59.1182L58.0026 16.355H57.9229L56.9517 12.2162H55.8659L57.3601 17.6399H58.4608L59.5764 13.6456H59.6611L60.7817 17.6399H61.8923L63.3815 12.2162Z" fill="white"/>
<path d="M64.6146 17.6399H65.6854V14.4674C65.6854 13.6207 66.1885 13.0928 66.9804 13.0928C67.7722 13.0928 68.1508 13.5261 68.1508 14.3977V17.6399H69.2216V14.1287C69.2216 12.8388 68.5542 12.1116 67.3439 12.1116C66.5271 12.1116 65.9892 12.4752 65.7253 13.0778H65.6456V12.2162H64.6146V17.6399Z" fill="white"/>
<path d="M70.9079 17.6399H71.9788V10.0995H70.9079V17.6399Z" fill="white"/>
<path d="M76.006 17.7445C77.5897 17.7445 78.5609 16.6837 78.5609 14.9256C78.5609 13.1774 77.5848 12.1116 76.006 12.1116C74.4222 12.1116 73.446 13.1774 73.446 14.9256C73.446 16.6837 74.4172 17.7445 76.006 17.7445ZM76.006 16.7933C75.0746 16.7933 74.5517 16.1109 74.5517 14.9256C74.5517 13.7502 75.0746 13.0629 76.006 13.0629C76.9323 13.0629 77.4603 13.7502 77.4603 14.9256C77.4603 16.106 76.9323 16.7933 76.006 16.7933Z" fill="white"/>
<path d="M81.7514 16.8281C81.1687 16.8281 80.7454 16.5442 80.7454 16.0562C80.7454 15.578 81.084 15.324 81.8311 15.2742L83.1559 15.1896V15.6428C83.1559 16.3151 82.5583 16.8281 81.7514 16.8281ZM81.4775 17.7296C82.1897 17.7296 82.7824 17.4208 83.1061 16.8779H83.1908V17.6399H84.2217V13.9345C84.2217 12.789 83.4547 12.1116 82.0951 12.1116C80.8649 12.1116 79.9883 12.7093 79.8788 13.6406H80.9147C81.0342 13.2571 81.4476 13.038 82.0453 13.038C82.7774 13.038 83.1559 13.3617 83.1559 13.9345V14.4026L81.6867 14.4873C80.3967 14.567 79.6696 15.1298 79.6696 16.106C79.6696 17.0971 80.4316 17.7296 81.4775 17.7296Z" fill="white"/>
<path d="M87.8555 17.7296C88.6026 17.7296 89.2351 17.376 89.5588 16.7833H89.6435V17.6399H90.6695V10.0995H89.5987V13.0778H89.519C89.2251 12.4802 88.5976 12.1266 87.8555 12.1266C86.4859 12.1266 85.6043 13.2123 85.6043 14.9256C85.6043 16.6439 86.4759 17.7296 87.8555 17.7296ZM88.1593 13.0878C89.0558 13.0878 89.6186 13.8 89.6186 14.9306C89.6186 16.0661 89.0608 16.7684 88.1593 16.7684C87.2528 16.7684 86.71 16.0761 86.71 14.9256C86.71 13.7851 87.2578 13.0878 88.1593 13.0878Z" fill="white"/>
<path d="M97.6132 17.7445C99.197 17.7445 100.168 16.6837 100.168 14.9256C100.168 13.1774 99.192 12.1116 97.6132 12.1116C96.0294 12.1116 95.0533 13.1774 95.0533 14.9256C95.0533 16.6837 96.0245 17.7445 97.6132 17.7445ZM97.6132 16.7933C96.6819 16.7933 96.1589 16.1109 96.1589 14.9256C96.1589 13.7502 96.6819 13.0629 97.6132 13.0629C98.5396 13.0629 99.0675 13.7502 99.0675 14.9256C99.0675 16.106 98.5396 16.7933 97.6132 16.7933Z" fill="white"/>
<path d="M101.586 17.6399H102.656V14.4674C102.656 13.6207 103.159 13.0928 103.951 13.0928C104.743 13.0928 105.122 13.5261 105.122 14.3977V17.6399H106.193V14.1287C106.193 12.8388 105.525 12.1116 104.315 12.1116C103.498 12.1116 102.96 12.4752 102.696 13.0778H102.617V12.2162H101.586V17.6399Z" fill="white"/>
<path d="M111.124 10.8665V12.2411H110.263V13.1426H111.124V16.2056C111.124 17.2515 111.597 17.6698 112.788 17.6698C112.997 17.6698 113.196 17.6449 113.37 17.615V16.7235C113.221 16.7385 113.126 16.7484 112.962 16.7484C112.429 16.7484 112.195 16.4994 112.195 15.9316V13.1426H113.37V12.2411H112.195V10.8665H111.124Z" fill="white"/>
<path d="M114.808 17.6399H115.879V14.4724C115.879 13.6506 116.367 13.0978 117.243 13.0978C118 13.0978 118.404 13.536 118.404 14.4026V17.6399H119.474V14.1387C119.474 12.8487 118.762 12.1166 117.607 12.1166C116.79 12.1166 116.217 12.4802 115.953 13.0878H115.869V10.0995H114.808V17.6399Z" fill="white"/>
<path d="M123.337 13.0231C124.129 13.0231 124.647 13.5759 124.672 14.4275H121.933C121.993 13.5809 122.545 13.0231 123.337 13.0231ZM124.667 16.1757C124.468 16.599 124.025 16.8331 123.377 16.8331C122.521 16.8331 121.968 16.2305 121.933 15.2792V15.2194H125.763V14.8459C125.763 13.1426 124.851 12.1116 123.342 12.1116C121.813 12.1116 120.842 13.2123 120.842 14.9455C120.842 16.6787 121.793 17.7445 123.347 17.7445C124.587 17.7445 125.454 17.1469 125.698 16.1757H124.667Z" fill="white"/>
<path d="M29.7228 24.361C29.7488 22.3438 30.8321 20.4351 32.5507 19.3785C31.4665 17.8301 29.6506 16.8484 27.7613 16.7893C25.7462 16.5778 23.7927 17.9951 22.7658 17.9951C21.7191 17.9951 20.1381 16.8103 18.4356 16.8453C16.2165 16.917 14.1478 18.1787 13.0681 20.1188C10.7473 24.1369 12.4784 30.0421 14.7016 33.29C15.8139 34.8805 17.1138 36.657 18.8147 36.594C20.4792 36.525 21.1009 35.5326 23.11 35.5326C25.1005 35.5326 25.6838 36.594 27.4192 36.554C29.2053 36.525 30.3306 34.9565 31.4038 33.351C32.203 32.2178 32.818 30.9653 33.2259 29.64C31.127 28.7522 29.7253 26.6399 29.7228 24.361Z" fill="white"/>
<path d="M26.4448 14.6533C27.4187 13.4842 27.8984 11.9816 27.7823 10.4645C26.2945 10.6208 24.9202 11.3319 23.9332 12.4561C22.968 13.5545 22.4658 15.0306 22.5607 16.4897C24.0491 16.5051 25.5122 15.8133 26.4448 14.6533Z" fill="white"/>
</svg>
