<svg width="48" height="48" viewBox="0 0 48 48" fill="none" xmlns="http://www.w3.org/2000/svg">
<path d="M0 12C0 5.37258 5.37258 0 12 0H36C42.6274 0 48 5.37258 48 12V36C48 42.6274 42.6274 48 36 48H12C5.37258 48 0 42.6274 0 36V12Z" fill="#6851DA"/>
<path d="M19.1831 14.7722C18.9678 14.4156 18.7418 14.0826 18.5171 13.7795C20.0565 12.6602 21.9512 12 24.0001 12C25.7601 12 27.4063 12.4871 28.8112 13.334C28.791 13.4528 28.7623 13.5874 28.7227 13.7372C28.5818 14.2694 28.3602 14.7773 28.1719 15.0737C28.1069 15.176 27.8398 15.4371 27.3553 15.798C27.1393 15.959 26.8994 16.1068 26.6138 16.2775L26.5147 16.3366C26.2647 16.4855 25.9787 16.656 25.7029 16.845C25.0522 17.2908 24.3746 17.8933 23.9189 18.8677C23.5893 19.5724 23.612 20.2587 23.7577 20.8092C23.8053 20.9888 23.8314 21.1698 23.8318 21.3287C23.8319 21.3781 23.8126 21.457 23.7022 21.5492C23.5835 21.6484 23.4163 21.7083 23.2661 21.7066C21.8301 21.6904 20.6974 20.501 20.533 18.6036C20.4081 17.1616 19.8189 15.8251 19.1831 14.7722Z" fill="white"/>
<path d="M30.2024 27.3452C30.555 27.3415 30.8858 27.3184 31.196 27.2776C30.0258 28.6926 28.4463 29.7567 26.6388 30.2884C26.5769 29.7799 26.6176 29.1689 26.9173 28.6041C27.1731 28.1219 27.821 27.7596 28.6955 27.5446C29.0972 27.4459 29.4792 27.3952 29.7631 27.3698C29.9036 27.3572 30.0168 27.351 30.0921 27.348C30.1297 27.3465 30.1576 27.3459 30.1745 27.3455L30.1907 27.3453L30.2024 27.3452Z" fill="white"/>
<path d="M14.6667 21.3333C14.6667 19.0408 15.4933 16.9414 16.8646 15.3167C16.9995 15.5081 17.1347 15.7133 17.2656 15.93C17.8008 16.8165 18.2166 17.8182 18.3014 18.797C18.5291 21.425 20.2767 23.9129 23.2407 23.9465C24.5231 23.961 26.0759 22.9972 26.0718 21.3231C26.0708 20.9398 26.0106 20.5662 25.9231 20.2359C25.881 20.0768 25.887 19.9469 25.9479 19.8166C26.1753 19.3305 26.5109 19.0066 26.9689 18.6928C27.1822 18.5467 27.4039 18.4145 27.6603 18.2615L27.7631 18.2002C28.0501 18.0286 28.3774 17.8299 28.6936 17.5943C29.1534 17.2517 29.7476 16.7706 30.0625 16.275C30.3118 15.8827 30.5428 15.3796 30.7217 14.8579C32.3389 16.5362 33.3334 18.8186 33.3334 21.3333C33.3334 22.0431 33.2542 22.7344 33.1041 23.3988C33.0142 23.6649 32.9022 23.9136 32.7005 24.1754C32.3843 24.5857 31.7509 25.089 30.179 25.1053L30.1711 25.1054L30.1327 25.1059C30.1011 25.1065 30.0576 25.1076 30.0036 25.1098C29.8958 25.114 29.7451 25.1224 29.5629 25.1387C29.2011 25.1712 28.7019 25.2364 28.1609 25.3694C27.1499 25.6179 25.6665 26.1825 24.9386 27.5541C24.3643 28.6364 24.2995 29.7475 24.4289 30.657C24.2868 30.6634 24.1438 30.6667 24.0001 30.6667C18.8454 30.6667 14.6667 26.488 14.6667 21.3333Z" fill="white"/>
<path fill-rule="evenodd" clip-rule="evenodd" d="M32.0046 9.99984C32.3729 9.58832 33.0051 9.5533 33.4166 9.92162C36.4328 12.6211 38.3333 16.5473 38.3333 20.9161C38.3333 28.5846 32.4816 34.8863 24.9999 35.5995V36.3334H26.6666C27.2189 36.3334 27.6666 36.7811 27.6666 37.3334C27.6666 37.8857 27.2189 38.3334 26.6666 38.3334H21.3333C20.781 38.3334 20.3333 37.8857 20.3333 37.3334C20.3333 36.7811 20.781 36.3334 21.3333 36.3334H22.9999V35.6555C18.8656 35.4948 15.1671 33.6315 12.5881 30.7501C12.2198 30.3386 12.2548 29.7064 12.6663 29.3381C13.0779 28.9697 13.7101 29.0048 14.0784 29.4163C16.4146 32.0265 19.8064 33.6668 23.5826 33.6668C30.6246 33.6668 36.3333 27.9581 36.3333 20.9161C36.3333 17.1399 34.693 13.7481 32.0828 11.4119C31.6713 11.0436 31.6362 10.4114 32.0046 9.99984Z" fill="white"/>
</svg>
