<svg width="48" height="48" viewBox="0 0 48 48" fill="none" xmlns="http://www.w3.org/2000/svg">
<path d="M0 12C0 5.37258 5.37258 0 12 0H36C42.6274 0 48 5.37258 48 12V36C48 42.6274 42.6274 48 36 48H12C5.37258 48 0 42.6274 0 36V12Z" fill="#6851DA"/>
<path d="M16.2961 14.1348C16.8888 13.7387 17.5112 13.3952 18.1561 13.1064C19.9853 12.2873 20.8998 11.8777 22.1166 12.666C23.3333 13.4542 23.3333 14.7473 23.3333 17.3334V19.3334C23.3333 21.8476 23.3333 23.1047 24.1143 23.8857C24.8954 24.6668 26.1525 24.6668 28.6666 24.6668H30.6666C33.2528 24.6668 34.5458 24.6668 35.3341 25.8835C36.1224 27.1002 35.7128 28.0148 34.8936 29.844C34.6048 30.4888 34.2613 31.1112 33.8652 31.704C32.4734 33.787 30.4952 35.4105 28.1806 36.3692C25.8661 37.3279 23.3192 37.5788 20.8622 37.09C18.4051 36.6013 16.1481 35.3949 14.3766 33.6234C12.6051 31.852 11.3988 29.595 10.91 27.1379C10.4213 24.6808 10.6721 22.134 11.6308 19.8194C12.5895 17.5049 14.2131 15.5266 16.2961 14.1348Z" fill="white"/>
<path d="M36.5947 17.4253C35.5123 14.6777 33.3222 12.4876 30.5746 11.4052C28.5192 10.5955 26.6666 12.4575 26.6666 14.6666V19.9999C26.6666 20.7363 27.2636 21.3333 28 21.3333H33.3333C35.5424 21.3333 37.4044 19.4807 36.5947 17.4253Z" fill="white"/>
</svg>
