<svg width="48" height="48" viewBox="0 0 48 48" fill="none" xmlns="http://www.w3.org/2000/svg">
<path d="M0 12C0 5.37258 5.37258 0 12 0H36C42.6274 0 48 5.37258 48 12V36C48 42.6274 42.6274 48 36 48H12C5.37258 48 0 42.6274 0 36V12Z" fill="#6851DA"/>
<path d="M35.9219 18.9185C36.6954 19.6828 37.0281 20.6452 37.1837 21.7882C37.3335 22.8891 37.3334 24.2889 37.3334 26.0256V26.1649C37.3334 27.9016 37.3335 29.3013 37.1837 30.4023C37.0281 31.5453 36.6954 32.5077 35.9219 33.272C35.1484 34.0364 34.1744 34.3651 33.0177 34.5188C31.9035 34.6668 30.4869 34.6668 28.7294 34.6667H22.1628C20.4052 34.6668 18.9886 34.6668 17.8745 34.5188C16.7177 34.3651 15.7438 34.0364 14.9702 33.272C14.501 32.8083 14.1939 32.2717 13.9902 31.6661C15.1522 31.8099 16.5897 31.8098 18.2506 31.8098H24.9299C26.6388 31.8098 28.1112 31.8099 29.2903 31.6533C30.5539 31.4854 31.7652 31.1069 32.7476 30.1361C33.7301 29.1653 34.1132 27.9684 34.2831 26.7198C34.4416 25.5547 34.4415 24.0998 34.4414 22.4113V22.1605C34.4415 20.5189 34.4416 19.0982 34.296 17.9499C34.9091 18.1511 35.4524 18.4546 35.9219 18.9185Z" fill="white"/>
<path d="M21.5903 20.0636C20.3482 20.0636 19.3413 21.0585 19.3413 22.2859C19.3413 23.5132 20.3482 24.5081 21.5903 24.5081C22.8323 24.5081 23.8392 23.5132 23.8392 22.2859C23.8392 21.0585 22.8323 20.0636 21.5903 20.0636Z" fill="white"/>
<path fill-rule="evenodd" clip-rule="evenodd" d="M11.796 15.7825C10.6667 16.8983 10.6667 18.6942 10.6667 22.2859C10.6667 25.8775 10.6667 27.6734 11.796 28.7892C12.9252 29.905 14.7426 29.905 18.3775 29.905H24.803C28.4379 29.905 30.2553 29.905 31.3846 28.7892C32.5138 27.6734 32.5138 25.8775 32.5138 22.2859C32.5138 18.6942 32.5138 16.8983 31.3846 15.7825C30.2553 14.6667 28.4379 14.6667 24.803 14.6667H18.3775C14.7426 14.6667 12.9252 14.6667 11.796 15.7825ZM17.4136 22.2859C17.4136 20.0066 19.2836 18.1588 21.5903 18.1588C23.8969 18.1588 25.7669 20.0066 25.7669 22.2859C25.7669 24.5651 23.8969 26.4129 21.5903 26.4129C19.2836 26.4129 17.4136 24.5651 17.4136 22.2859ZM28.6584 25.778C28.1261 25.778 27.6946 25.3516 27.6946 24.8256V19.7462C27.6946 19.2202 28.1261 18.7938 28.6584 18.7938C29.1907 18.7938 29.6222 19.2202 29.6222 19.7462V24.8256C29.6222 25.3516 29.1907 25.778 28.6584 25.778ZM13.5583 24.8256C13.5583 25.3516 13.9898 25.778 14.5221 25.778C15.0544 25.778 15.4859 25.3516 15.4859 24.8256L15.4859 19.7462C15.4859 19.2202 15.0544 18.7938 14.5221 18.7938C13.9898 18.7938 13.5583 19.2202 13.5583 19.7462L13.5583 24.8256Z" fill="white"/>
</svg>
